<?xml version="1.0" standalone="no"?>
<!DOCTYPE svg PUBLIC "-//W3C//DTD SVG 1.1//EN" "http://www.w3.org/Graphics/SVG/1.1/DTD/svg11.dtd">
<svg width="100%" height="100%" viewBox="0 0 404 316" version="1.1" xmlns="http://www.w3.org/2000/svg" xmlns:xlink="http://www.w3.org/1999/xlink" xml:space="preserve" style="fill-rule:evenodd;clip-rule:evenodd;stroke-linejoin:round;stroke-miterlimit:1.41421;">
    <g transform="matrix(9.58982,7.12304e-16,7.12304e-16,6.68161,-18.6352,-35.3767)">
        <rect x="1.943" y="5.295" width="42.128" height="47.294" style="fill:white;"/>
    </g>
    <path d="M205.467,15.497C124.363,15.497 58.596,81.25 58.596,162.368C58.596,227.257 100.679,282.311 159.035,301.731C166.375,303.091 169.07,298.545 169.07,294.666C169.07,291.166 168.934,279.594 168.871,267.321C128.011,276.206 119.389,249.993 119.389,249.993C112.708,233.019 103.082,228.502 103.082,228.502C89.756,219.387 104.086,219.574 104.086,219.574C118.835,220.61 126.6,234.712 126.6,234.712C139.7,257.162 160.959,250.671 169.34,246.918C170.661,237.428 174.464,230.947 178.665,227.279C146.043,223.568 111.75,210.972 111.75,154.695C111.75,138.662 117.487,125.558 126.882,115.273C125.358,111.573 120.33,96.635 128.308,76.405C128.308,76.405 140.641,72.46 168.705,91.462C180.421,88.208 192.985,86.576 205.467,86.518C217.948,86.576 230.522,88.208 242.26,91.462C270.292,72.46 282.609,76.405 282.609,76.405C290.603,96.635 285.576,111.573 284.051,115.273C293.468,125.558 299.164,138.662 299.164,154.695C299.164,211.108 264.806,223.526 232.101,227.162C237.369,231.72 242.063,240.658 242.063,254.361C242.063,274.012 241.895,289.828 241.895,294.666C241.895,298.577 244.536,303.154 251.981,301.714C310.308,282.272 352.337,227.238 352.337,162.368C352.337,81.25 286.58,15.497 205.467,15.497ZM156.862,255.261C156.904,256.472 155.493,257.476 153.747,257.498C151.991,257.537 150.568,256.557 150.549,255.365C150.549,254.142 151.93,253.15 153.684,253.118C155.43,253.084 156.862,254.059 156.862,255.261ZM168.047,253.358C168.256,254.538 167.042,255.751 165.308,256.075C163.603,256.389 162.025,255.656 161.808,254.487C161.597,253.275 162.83,252.062 164.535,251.748C166.271,251.446 167.826,252.157 168.047,253.358ZM144.842,254.382C144.484,255.532 142.835,256.053 141.172,255.564C139.511,255.06 138.424,253.715 138.759,252.553C139.105,251.395 140.763,250.85 142.439,251.373C144.098,251.874 145.187,253.212 144.842,254.382ZM133.897,249.636C133.092,250.524 131.378,250.286 130.123,249.072C128.839,247.89 128.481,246.21 129.286,245.322C130.103,244.432 131.828,244.682 133.092,245.884C134.367,247.066 134.754,248.758 133.897,249.636ZM125.965,241.464C125.065,242.091 123.591,241.505 122.681,240.199C121.781,238.89 121.781,237.324 122.703,236.697C123.613,236.069 125.065,236.636 125.986,237.93C126.884,239.258 126.884,240.824 125.965,241.464ZM120.174,233.006C119.474,233.655 118.102,233.354 117.175,232.327C116.212,231.303 116.035,229.932 116.745,229.275C117.467,228.626 118.795,228.93 119.756,229.954C120.719,230.99 120.906,232.347 120.174,233.006ZM114.224,226.37C113.901,227.102 112.753,227.321 111.707,226.82C110.639,226.338 110.043,225.343 110.389,224.611C110.705,223.862 111.853,223.653 112.918,224.154C113.983,224.633 114.592,225.638 114.224,226.37Z" style="fill:rgb(24,23,23);"/>
</svg>
