<?xml version="1.0" standalone="no"?>
<!DOCTYPE svg PUBLIC "-//W3C//DTD SVG 1.1//EN" "http://www.w3.org/Graphics/SVG/1.1/DTD/svg11.dtd">
<svg width="100%" height="100%" viewBox="0 0 404 316" version="1.1" xmlns="http://www.w3.org/2000/svg" xmlns:xlink="http://www.w3.org/1999/xlink" xml:space="preserve" style="fill-rule:evenodd;clip-rule:evenodd;stroke-linejoin:round;stroke-miterlimit:1.41421;">
    <g transform="matrix(9.58982,7.12304e-16,7.12304e-16,6.68161,-18.6352,-35.3767)">
        <rect x="1.943" y="5.295" width="42.128" height="47.294" style="fill:white;"/>
    </g>
    <g transform="matrix(0.243997,0,0,0.243997,108.305,40.8812)">
        <path d="M416,384L512,480L416,576L480,640L640,480L480,320L416,384ZM0,64L0,896L768,896L768,64L0,64ZM704,832L64,832L64,128L704,128L704,832ZM352,576L256,480L352,384L288,320L128,480L288,640L352,576Z" style="fill:black;fill-rule:nonzero;"/>
    </g>
</svg>
