<?xml version="1.0" standalone="no"?>
<!DOCTYPE svg PUBLIC "-//W3C//DTD SVG 1.1//EN" "http://www.w3.org/Graphics/SVG/1.1/DTD/svg11.dtd">
<svg width="100%" height="100%" viewBox="0 0 1684 1317" version="1.1" xmlns="http://www.w3.org/2000/svg" xmlns:xlink="http://www.w3.org/1999/xlink" xml:space="preserve" style="fill-rule:evenodd;clip-rule:evenodd;stroke-linejoin:round;stroke-miterlimit:1.41421;">
    <g id="Artboard1" transform="matrix(0.809086,-3.90532e-17,-4.72603e-17,0.844106,-2.80186,-213.568)">
        <rect x="3.463" y="253.011" width="2080.54" height="1559.84" style="fill:white;"/>
        <g transform="matrix(3.91127,1.80201e-16,2.18128e-16,3.74785,53.6577,103.371)">
            <g id="Layer 1">
                <path d="M159.04,325.74C151.15,318.599 146.24,309.939 144.27,299.74C143.62,296.33 143.29,292.76 143.29,289C143.28,274.46 148.57,262.439 159.17,252.97C169.76,243.49 183.23,238.74 199.59,238.75C216.38,238.75 232.21,245.03 246.19,257.599C249.68,260.73 253.05,264.26 256.3,268.17L274.279,289.31C277.391,293.57 280.73,297.25 284.18,300.349C293.41,308.64 303.43,312.79 311.891,312.79C319.09,312.79 325.1,310.59 329.939,306.17C334.16,302.15 336.54,297.34 337.07,291.769L337.18,289.33C337.18,286.91 336.84,284.62 336.141,282.47C334.99,278.89 332.88,275.67 329.82,272.8C325.04,268.24 319.019,265.99 311.721,265.99C302.75,265.99 293.88,269.01 284.16,278.429L268.24,259.71L266.3,257.54C280.221,243.9 294.12,238.78 312.83,238.78C329.41,238.78 342.83,243.49 353.1,252.89L353.33,253.08C363.769,262.46 369,274.59 369,289.47C369,293.15 368.67,296.67 368.019,300.019C366.061,310.09 361.141,318.67 353.279,325.779C345.561,332.89 336.141,337.34 325.019,339.109C321.311,339.7 317.41,340 313.32,340C296.15,339.99 280.269,333.849 266.609,321.59C262.92,318.269 259.391,314.51 256.04,310.29L238.06,289.3C235.02,285.09 231.73,281.45 228.31,278.37C219.1,270.099 208.95,265.96 200.25,265.96C197.55,265.96 195.02,266.279 192.66,266.91C188.74,267.96 185.31,269.9 182.35,272.72C178.73,276.17 176.46,280.14 175.56,284.63C175.26,286.12 175.1,287.679 175.11,289.29C175.11,295.67 177.41,301.13 182.01,305.66L182.36,305.99C187.3,310.51 193.37,312.76 200.57,312.76C209.62,312.76 218.53,309.72 228.23,300.22L244.07,318.71L245.82,320.82C231.36,334.62 217.61,339.84 199.62,339.83C183.05,339.83 169.53,335.13 159.04,325.74M400.08,237.66C400.221,235.35 400.43,233.06 400.43,230.72C400.43,166.81 347.82,115 282.92,115C236.12,115 195.83,142 176.93,180.99C167.76,173.99 156.28,169.78 143.79,169.78C113.85,169.78 89.58,193.68 89.58,223.16C89.58,228.7 90.43,234.05 92.03,239.07C68.69,252.74 53,277.74 53,306.42C53,349.3 87.97,384.08 131.36,384.74L132.28,384.79L132.6,384.8L132.92,384.79L365.96,384.79C367.38,384.859 368.769,385 370.21,385C413.17,385 448,350.71 448,308.4C448,276.51 428.21,249.2 400.08,237.66" style="fill:rgb(28,144,243);"/>
            </g>
        </g>
    </g>
</svg>
